<?xml version="1.0" encoding="UTF-8"?>
<svg version="1.1" xmlns="http://www.w3.org/2000/svg" width="500" height="500">
<path d="M0 0 C1.20036719 -0.00445784 2.40073437 -0.00891569 3.63747633 -0.01350862 C4.94757157 -0.01332426 6.25766682 -0.01313989 7.60746193 -0.01294994 C9.02016953 -0.01625171 10.43287618 -0.01997794 11.84558165 -0.02409142 C15.72327857 -0.03408417 19.60096001 -0.03782382 23.47866797 -0.04048073 C27.66296336 -0.04439196 31.84724659 -0.05396979 36.03153419 -0.0626936 C46.13524048 -0.08243612 56.23894773 -0.09252194 66.34266847 -0.10142139 C71.10540897 -0.10580838 75.86814836 -0.11117417 80.63088799 -0.11641026 C96.47189478 -0.1334212 112.31290089 -0.1479138 128.15391541 -0.155159 C132.26274936 -0.15706877 136.37158332 -0.15898912 140.48041725 -0.16094494 C141.50159876 -0.16142868 142.52278026 -0.16191242 143.57490666 -0.16241082 C160.10512555 -0.17070525 176.63527194 -0.19603285 193.1654592 -0.22852562 C210.15207426 -0.2616422 227.13865254 -0.27961196 244.12530005 -0.28280324 C253.65636036 -0.2849642 263.18731497 -0.29365202 272.71834373 -0.31926441 C280.83809628 -0.34103441 288.95771744 -0.34899101 297.07749586 -0.33929763 C301.21521691 -0.33477096 305.35266728 -0.33654314 309.49035072 -0.35605907 C313.28940327 -0.37382182 317.08799029 -0.37258851 320.88704868 -0.35716178 C322.88910401 -0.3537018 324.89116499 -0.36971355 326.89315069 -0.38676625 C350.58898727 -0.22097693 372.0337213 9.72926574 388.93403053 26.13422108 C389.96270241 27.05267811 389.96270241 27.05267811 391.01215553 27.98968983 C404.8778316 40.79087502 415.23562318 62.23302676 416.0628317 81.06673944 C416.06462027 82.1007783 416.06640884 83.13481717 416.06825161 84.20019054 C416.07270945 85.40055773 416.0771673 86.60092492 416.08176023 87.83766687 C416.08148368 89.80280974 416.08148368 89.80280974 416.08120155 91.80765247 C416.08450332 93.22036007 416.08822955 94.63306673 416.09234303 96.04577219 C416.10233578 99.92346911 416.10607543 103.80115055 416.10873234 107.67885852 C416.11264357 111.86315391 416.1222214 116.04743714 416.13094521 120.23172474 C416.15068773 130.33543102 416.16077355 140.43913827 416.169673 150.54285902 C416.17405999 155.30559951 416.17942578 160.06833891 416.18466187 164.83107853 C416.20167281 180.67208532 416.21616541 196.51309143 416.22341061 212.35410595 C416.22532038 216.46293991 416.22724073 220.57177386 416.22919655 224.6806078 C416.22968029 225.7017893 416.23016403 226.72297081 416.23066243 227.77509721 C416.23895686 244.3053161 416.26428446 260.83546249 416.29677723 277.36564974 C416.32989381 294.35226481 416.34786357 311.33884309 416.35105485 328.32549059 C416.35321581 337.8565509 416.36190363 347.38750552 416.38751602 356.91853428 C416.40928602 365.03828682 416.41724262 373.15790799 416.40754924 381.2776864 C416.40302257 385.41540746 416.40479475 389.55285782 416.42431068 393.69054127 C416.44207343 397.48959381 416.44084012 401.28818083 416.42541339 405.08723922 C416.42195341 407.08929455 416.43796516 409.09135553 416.45501786 411.09334123 C416.2837144 435.57730019 405.78915941 456.85078549 388.93403053 474.13422108 C388.35008522 474.79164295 387.76613991 475.44906483 387.16449928 476.12640858 C375.10668527 489.37474093 355.31494959 497.63476365 337.93403053 500.13422108 C335.91349377 500.22296647 333.89054278 500.26494388 331.86806107 500.26844215 C330.66769388 500.2729 329.46732669 500.27735784 328.23058474 500.28195077 C326.92048949 500.28176641 325.61039424 500.28158205 324.26059914 500.2813921 C322.84789154 500.28469387 321.43518488 500.28842009 320.02247941 500.29253358 C316.1447825 500.30252633 312.26710106 500.30626598 308.38939309 500.30892289 C304.2050977 500.31283411 300.02081447 500.32241195 295.83652687 500.33113575 C285.73282059 500.35087827 275.62911334 500.36096409 265.52539259 500.36986354 C260.7626521 500.37425053 255.9999127 500.37961632 251.23717308 500.38485241 C235.39616629 500.40186336 219.55516018 500.41635595 203.71414566 500.42360115 C199.6053117 500.42551092 195.49647775 500.42743127 191.38764381 500.42938709 C190.36646231 500.42987083 189.3452808 500.43035457 188.2931544 500.43085297 C171.76293551 500.4391474 155.23278912 500.464475 138.70260186 500.49696777 C121.7159868 500.53008435 104.72940852 500.54805411 87.74276102 500.55124539 C78.21170071 500.55340635 68.68074609 500.56209417 59.14971733 500.58770657 C51.02996479 500.60947656 42.91034362 500.61743317 34.79056521 500.60773978 C30.65284415 500.60321311 26.51539379 500.60498529 22.37771034 500.62450123 C18.5786578 500.64226398 14.78007078 500.64103066 10.98101239 500.62560394 C8.97895706 500.62214396 6.97689608 500.6381557 4.97491038 500.65520841 C-18.7209262 500.48941909 -40.16566023 490.53917642 -57.06596947 474.13422108 C-57.75175072 473.52191639 -58.43753197 472.9096117 -59.14409447 472.27875233 C-73.00977054 459.47756714 -83.36756211 438.0354154 -84.19477063 419.20170271 C-84.1965592 418.16766385 -84.19834777 417.13362499 -84.20019054 416.06825161 C-84.20464839 414.86788442 -84.20910623 413.66751724 -84.21369916 412.43077528 C-84.2135148 411.12068004 -84.21333044 409.81058479 -84.21314049 408.46078968 C-84.21644226 407.04808208 -84.22016848 405.63537543 -84.22428197 404.22266996 C-84.23427472 400.34497304 -84.23801437 396.4672916 -84.24067128 392.58958364 C-84.2445825 388.40528825 -84.25416034 384.22100502 -84.26288414 380.03671741 C-84.28262666 369.93301113 -84.29271248 359.82930388 -84.30161193 349.72558314 C-84.30599892 344.96284264 -84.31136471 340.20010325 -84.3166008 335.43736362 C-84.33361175 319.59635683 -84.34810434 303.75535072 -84.35534954 287.9143362 C-84.35725931 283.80550225 -84.35917966 279.69666829 -84.36113548 275.58783436 C-84.36161922 274.56665285 -84.36210296 273.54547135 -84.36260136 272.49334495 C-84.37089579 255.96312606 -84.39622339 239.43297967 -84.42871616 222.90279241 C-84.46183274 205.91617734 -84.4798025 188.92959906 -84.48299378 171.94295156 C-84.48515474 162.41189125 -84.49384256 152.88093664 -84.51945496 143.34990788 C-84.54122495 135.23015533 -84.54918156 127.11053417 -84.53948817 118.99075575 C-84.5349615 114.8530347 -84.53673368 110.71558433 -84.55624962 106.57790089 C-84.57401237 102.77884834 -84.57277905 98.98026132 -84.55735233 95.18120293 C-84.55389235 93.1791476 -84.56990409 91.17708662 -84.5869568 89.17510092 C-84.42116748 65.47926434 -74.47092481 44.03453031 -58.06596947 27.13422108 C-57.45366478 26.44843983 -56.84136009 25.76265858 -56.21050072 25.05609608 C-42.60056447 10.31441673 -19.99909166 0.0345923 0 0 Z M2.93403053 82.13422108 C2.24824928 82.64468983 1.56246803 83.15515858 0.85590553 83.68109608 C-11.96438803 93.87676261 -18.79522567 109.25664098 -21.06596947 125.13422108 C-21.31891114 128.71145319 -21.34121731 132.26861114 -21.32666588 135.85377979 C-21.33049143 136.87418863 -21.33431697 137.89459748 -21.33825845 138.9459278 C-21.34850195 142.33402272 -21.34461282 145.72194542 -21.34062767 149.11005116 C-21.34497895 151.55198287 -21.35016348 153.99391322 -21.35611534 156.43584156 C-21.36808733 162.36199857 -21.37066209 168.28811352 -21.36831508 174.21427802 C-21.3665262 179.0356015 -21.36829373 183.85691129 -21.37253952 188.67823315 C-21.37313471 189.36654095 -21.3737299 190.05484875 -21.37434312 190.76401436 C-21.37555498 192.16268725 -21.37676911 193.56136014 -21.3779855 194.96003302 C-21.38884249 208.05408827 -21.38670737 221.14811772 -21.38060065 234.24217441 C-21.37543393 246.19512368 -21.38668376 258.14799139 -21.40569887 270.10092453 C-21.42511738 282.40266307 -21.4333262 294.7043631 -21.42957562 307.00611705 C-21.42766955 313.9011845 -21.43009281 320.79618258 -21.44429016 327.69123745 C-21.45751282 334.17805848 -21.45488965 340.66475753 -21.44187927 347.15157986 C-21.43952188 349.52423121 -21.44221793 351.89689414 -21.4505024 354.2695322 C-21.52599377 377.5816304 -18.95973964 396.52095473 -2.06596947 414.13422108 C2.9816708 419.03484269 8.77797459 422.27255445 14.99653053 425.44672108 C15.65725563 425.78469715 16.31798073 426.12267323 16.9987278 426.470891 C32.32435307 433.96945303 50.0105671 432.28362891 66.62446022 432.27948475 C69.02388498 432.28248039 71.42330927 432.28588385 73.82273293 432.28966236 C79.64179773 432.29755261 85.46085019 432.30071519 91.27992007 432.30127474 C96.01538642 432.30175194 100.75084947 432.30381683 105.48631477 432.30697536 C118.94740005 432.31576955 132.4084774 432.32039662 145.86956558 432.31964489 C146.95528432 432.31958496 146.95528432 432.31958496 148.06293678 432.31952381 C149.14999916 432.31946249 149.14999916 432.31946249 150.25902238 432.31939993 C161.99714281 432.31899369 173.73523113 432.32856084 185.47334227 432.34266218 C197.56041435 432.35706682 209.6474708 432.36393014 221.73455167 432.3630684 C228.50669352 432.36273787 235.27880169 432.36542168 242.05093575 432.37624645 C248.42367094 432.38597435 254.79633532 432.38597459 261.1690731 432.37872982 C263.49734667 432.37768982 265.82562475 432.38001178 268.15389061 432.38609028 C300.54389489 432.47492759 300.54389489 432.47492759 328.93403053 418.13422108 C329.61852272 417.62375233 330.30301491 417.11328358 331.00824928 416.58734608 C343.74553001 406.4775987 350.8522622 390.96557106 352.93403053 375.13422108 C353.18606394 370.32538766 353.16841273 365.53059286 353.12934303 360.71625233 C353.12632179 358.93414356 353.12632179 358.93414356 353.12323952 357.1160326 C353.11286536 352.72622217 353.08494362 348.33646728 353.05903053 343.94672108 C352.99715553 329.18953358 352.99715553 329.18953358 352.93403053 314.13422108 C324.88403053 314.13422108 296.83403053 314.13422108 267.93403053 314.13422108 C267.93403053 325.02422108 267.93403053 335.91422108 267.93403053 347.13422108 C200.61403053 347.13422108 133.29403053 347.13422108 63.93403053 347.13422108 C63.93403053 283.11422108 63.93403053 219.09422108 63.93403053 153.13422108 C131.25403053 153.13422108 198.57403053 153.13422108 267.93403053 153.13422108 C267.93403053 163.69422108 267.93403053 174.25422108 267.93403053 185.13422108 C295.98403053 185.13422108 324.03403053 185.13422108 352.93403053 185.13422108 C352.99590553 175.52297108 353.05778053 165.91172108 353.12153053 156.00922108 C353.14884254 153.00425526 353.17615456 149.99928944 353.2042942 146.90326405 C353.21306949 144.47764962 353.22071094 142.05203072 353.22699928 139.62640858 C353.24234718 138.4025243 353.25769508 137.17864002 353.27350807 135.91766834 C353.27913204 117.04736765 347.8604511 101.0849995 334.93403053 87.13422108 C333.97110085 86.09008045 333.97110085 86.09008045 332.98871803 85.02484608 C319.07493021 71.37557893 301.0310904 67.97007184 282.29639626 68.00050831 C280.7427866 67.99710997 280.7427866 67.99710997 279.1577909 67.99364299 C275.70591395 67.98734022 272.25407664 67.98812995 268.8021946 67.98895741 C266.31952807 67.98596359 263.836862 67.98256055 261.35419655 67.97877979 C255.32115985 67.9708736 249.28813858 67.96772612 243.25509813 67.96716741 C238.34743282 67.96669103 233.4397707 67.96463019 228.5321064 67.96146679 C214.59539951 67.95266724 200.6587003 67.94804632 186.72199062 67.94879726 C185.59670135 67.9488572 185.59670135 67.9488572 184.44867897 67.94891834 C183.69756237 67.94895922 182.94644576 67.9490001 182.17256805 67.94904222 C170.00543995 67.9494485 157.83834282 67.93988187 145.67122367 67.92577998 C133.15598643 67.91138991 120.64076428 67.90451124 108.12551856 67.90537375 C101.10806516 67.90570481 94.09064423 67.9029977 87.07319832 67.8921957 C80.47070138 67.88209697 73.86826108 67.88245285 67.26575661 67.88971233 C64.84914741 67.89075504 62.4325339 67.88841404 60.01593208 67.88235188 C38.87449129 67.83277255 20.24205715 68.40716548 2.93403053 82.13422108 Z " fill="#333333" transform="translate(84.06596946716309,-0.13422107696533203)"/>
</svg>
